<svg version="1.1" xmlns="http://www.w3.org/2000/svg" xmlns:xlink="http://www.w3.org/1999/xlink" width="14" height="14" viewBox="0 0 14 14">
<path d="M1 13.5q0 0.203-0.148 0.352t-0.352 0.148-0.352-0.148-0.148-0.352 0.148-0.352 0.352-0.148 0.352 0.148 0.148 0.352zM2.5 12q0 0.203-0.148 0.352t-0.352 0.148-0.352-0.148-0.148-0.352 0.148-0.352 0.352-0.148 0.352 0.148 0.148 0.352zM2.852 9.148l2 2-0.703 0.703-2-2zM5.5 9q0 0.203-0.148 0.352t-0.352 0.148-0.352-0.148-0.148-0.352 0.148-0.352 0.352-0.148 0.352 0.148 0.148 0.352zM11.023 6.5q0 0.461-0.090 0.848t-0.293 0.73-0.344 0.527-0.414 0.504q-0.242 0.273-0.355 0.422t-0.262 0.391-0.207 0.5-0.059 0.578q0 1.242-0.879 2.121t-2.121 0.879q-0.203 0-0.352-0.148t-0.148-0.352 0.148-0.352 0.352-0.148q0.828 0 1.414-0.586t0.586-1.414q0-0.445 0.090-0.824t0.289-0.711 0.34-0.52 0.406-0.492q0.312-0.359 0.465-0.563t0.293-0.582 0.141-0.809q0-1.445-1.027-2.473t-2.473-1.027-2.473 1.027-1.027 2.473q0 0.203-0.148 0.352t-0.352 0.148-0.352-0.148-0.148-0.352q0-0.914 0.355-1.746t0.961-1.438 1.438-0.961 1.746-0.355 1.746 0.355 1.438 0.961 0.961 1.438 0.355 1.746zM7 7.5q0 0.203-0.148 0.352t-0.352 0.148-0.352-0.148-0.148-0.352 0.148-0.352 0.352-0.148 0.352 0.148 0.148 0.352zM9.25 6.5q0 0.203-0.148 0.352t-0.352 0.148-0.352-0.148-0.148-0.352q0-0.727-0.512-1.238t-1.238-0.512q-0.719 0-1.234 0.512t-0.516 1.238q0 0.203-0.148 0.352t-0.352 0.148-0.352-0.148-0.148-0.352q0-1.141 0.805-1.945t1.945-0.805 1.945 0.805 0.805 1.945zM12.328 4.242q0.078 0.195-0.008 0.383t-0.281 0.266q-0.070 0.031-0.18 0.031-0.148 0-0.277-0.086t-0.184-0.234q-0.531-1.391-1.75-2.305-0.164-0.125-0.195-0.328t0.094-0.367q0.133-0.164 0.336-0.195t0.367 0.094q1.43 1.070 2.078 2.742zM13.969 3.609q0.070 0.195-0.012 0.383t-0.277 0.266q-0.086 0.031-0.18 0.031-0.344 0-0.469-0.32-0.719-1.859-2.32-3.070-0.172-0.125-0.199-0.328t0.098-0.367q0.125-0.172 0.328-0.199t0.367 0.098q1.836 1.367 2.664 3.508z"></path>
</svg>
