<svg version="1.1" xmlns="http://www.w3.org/2000/svg" xmlns:xlink="http://www.w3.org/1999/xlink" width="18" height="14" viewBox="0 0 18 14">
<path d="M3.938 7.766h1.336l-0.008-2.070zM11.953 6.992q0-0.68-0.395-1.094t-1.145-0.414h-0.422v3.031h0.406q0.711 0 1.133-0.445t0.422-1.078zM7.469 4.047l0.008 5.906q0 0.109-0.074 0.187t-0.184 0.078h-1.688q-0.109 0-0.184-0.078t-0.074-0.187v-0.484h-2.273l-0.43 0.633q-0.078 0.117-0.219 0.117h-2.086q-0.164 0-0.238-0.141t0.027-0.273l4.344-5.914q0.070-0.109 0.211-0.109h2.594q0.109 0 0.187 0.078t0.078 0.187zM13.93 6.992q0 1.508-0.98 2.367t-2.535 0.859h-2.109q-0.109 0-0.187-0.078t-0.078-0.187v-5.906q0-0.109 0.078-0.187t0.187-0.078h2.094q1.563 0 2.547 0.852t0.984 2.359zM15.148 7q0 0.086-0.004 0.227t-0.062 0.559-0.168 0.797-0.348 0.844-0.574 0.801h-0.398q0.297-0.352 0.52-0.816t0.324-0.875 0.164-0.766 0.070-0.566l0.008-0.211q0-0.062-0.004-0.176t-0.059-0.469-0.156-0.715-0.32-0.871-0.516-0.973h0.336q0.32 0.367 0.563 0.836t0.355 0.871 0.18 0.75 0.082 0.551zM16.586 7q0 0.086-0.004 0.227t-0.062 0.559-0.168 0.797-0.352 0.844-0.578 0.801h-0.398q0.297-0.352 0.52-0.816t0.324-0.875 0.164-0.766 0.070-0.566l0.008-0.211q0-0.062-0.004-0.176t-0.059-0.469-0.152-0.715-0.316-0.871-0.516-0.973h0.336q0.32 0.367 0.563 0.836t0.355 0.871 0.18 0.75 0.082 0.551zM18 7q0 0.086-0.004 0.227t-0.062 0.559-0.168 0.797-0.348 0.844-0.574 0.801h-0.398q0.297-0.352 0.516-0.816t0.32-0.875 0.164-0.766 0.070-0.566l0.008-0.211q0-0.062-0.004-0.176t-0.059-0.469-0.152-0.715-0.316-0.871-0.516-0.973h0.336q0.32 0.367 0.563 0.836t0.355 0.871 0.18 0.75 0.074 0.551z"></path>
</svg>
