<svg version="1.1" xmlns="http://www.w3.org/2000/svg" xmlns:xlink="http://www.w3.org/1999/xlink" width="11" height="14" viewBox="0 0 11 14">
<path d="M2.859 2.43q-0.5 0-0.859-0.355t-0.359-0.863q0-0.5 0.359-0.855t0.859-0.355 0.855 0.355 0.355 0.855q0 0.508-0.355 0.863t-0.855 0.355zM7.164 7.445q0 0.391-0.234 0.527t-0.496 0.051-0.371-0.266l-2.867-3.422q-0.055-0.094-0.109-0.121t-0.086-0.012l-0.023 0.023q-0.055 0.062 0.031 0.164l0.953 1.086 0.008 2.766-1.258 3.57q-0.523 1.5-0.719 1.828-0.125 0.203-0.219 0.25-0.391 0.203-0.805 0.008-0.227-0.102-0.324-0.336t-0.074-0.445q0.016-0.133 1.539-4.828l0.039-3.25-0.664 1.281 0.273 1.734q0.031 0.187-0.008 0.328t-0.109 0.215-0.148 0.125-0.133 0.059l-0.055 0.016q-0.148 0.023-0.27-0.023t-0.187-0.125-0.109-0.172-0.059-0.152-0.016-0.074l-0.359-2.336 1.648-2.977q0.18-0.266 0.883-0.266 0.586 0 0.836 0.312l3.313 4.070q0.055 0.039 0.109 0.133l0.023 0.023-0.008 0.008q0.055 0.102 0.055 0.227zM4.016 8.617q0.336 0.883 0.691 1.758t0.543 1.313l0.187 0.43q0.281 0.727 0.328 0.977 0.086 0.547-0.281 0.758-0.273 0.172-0.516 0.125t-0.398-0.172-0.227-0.273h-0.008q-0.047-0.125-0.062-0.195l-0.969-2.742zM10.453 13.242q0.242 0.383 0.242 0.445 0 0.039-0.023 0.055-0.070 0.039-0.113-0.004t-0.121-0.203-0.125-0.238q-0.891-1.344-3.305-5.164 0.023 0.008 0.055-0.008t0.055-0.031l0.023-0.016q0.086-0.070 0.086-0.133z"></path>
</svg>
